<svg width="74" height="50" viewBox="0 0 74 50" fill="none" xmlns="http://www.w3.org/2000/svg">
<path d="M41.9792 15.5458C41.9792 12.8639 41.0486 10.5924 39.1875 8.73125C37.3264 6.86875 35.0549 5.9375 32.3729 5.9375V4.16666C35.5243 4.16666 38.2083 5.275 40.425 7.49166C42.6417 9.70833 43.75 12.3931 43.75 15.5458H41.9792ZM36.4583 15.5458C36.4583 14.4264 36.0569 13.4653 35.2542 12.6625C34.4514 11.8597 33.4903 11.4583 32.3708 11.4583V9.6875C34.0139 9.6875 35.3972 10.2514 36.5208 11.3792C37.6431 12.5056 38.2125 13.8944 38.2292 15.5458H36.4583ZM9.61667 41.6667C8.65694 41.6667 7.85625 41.3458 7.21458 40.7042C6.57292 40.0625 6.25139 39.2611 6.25 38.3V15.8667C6.25 14.9069 6.57153 14.1062 7.21458 13.4646C7.85764 12.8229 8.65764 12.5014 9.61458 12.5H15.7771L19.6313 8.33333H30.2896V10.4167H20.5333L16.6917 14.5833H9.61458C9.24097 14.5833 8.93403 14.7035 8.69375 14.9437C8.45347 15.184 8.33333 15.4917 8.33333 15.8667V38.3021C8.33333 38.6757 8.45347 38.9826 8.69375 39.2229C8.93403 39.4632 9.24167 39.5833 9.61667 39.5833H40.3854C40.759 39.5833 41.066 39.4632 41.3062 39.2229C41.5465 38.9826 41.6667 38.675 41.6667 38.3V17.6292H43.75V38.3042C43.75 39.2625 43.4292 40.0632 42.7875 40.7062C42.1458 41.3493 41.3451 41.6694 40.3854 41.6667H9.61667ZM25 34.8542C27.1764 34.8542 29.016 34.1035 30.5187 32.6021C32.0215 31.1007 32.7729 29.2611 32.7729 27.0833C32.7729 24.9056 32.0215 23.066 30.5187 21.5646C29.016 20.0632 27.1764 19.3118 25 19.3104C22.8236 19.309 20.984 20.0604 19.4812 21.5646C17.9785 23.0687 17.2271 24.9083 17.2271 27.0833C17.2271 29.2583 17.9785 31.0979 19.4812 32.6021C20.984 34.1062 22.8236 34.8576 25 34.8562M25 32.7729C23.3819 32.7729 22.0292 32.2292 20.9417 31.1417C19.8542 30.0542 19.3104 28.7014 19.3104 27.0833C19.3104 25.4653 19.8542 24.1125 20.9417 23.025C22.0292 21.9375 23.3819 21.3937 25 21.3937C26.6181 21.3937 27.9708 21.9375 29.0583 23.025C30.1458 24.1125 30.6896 25.4653 30.6896 27.0833C30.6896 28.7014 30.1458 30.0542 29.0583 31.1417C27.9708 32.2292 26.6181 32.7729 25 32.7729Z" 
fill="#4B46E0"/>
<path d="M69 25.998H63V31.998H61V25.998H55V23.998H61V17.998H63V23.998H69V25.998Z" fill="#4B46E0"/>
</svg>
