<svg width="24" height="25" viewBox="0 0 24 25" fill="none" xmlns="http://www.w3.org/2000/svg">
<path d="M23.0325 6.94814L18.179 4.30064C18.1241 4.27062 18.0626 4.25483 18 4.2547H15C14.9005 4.2547 14.8051 4.29421 14.7348 4.36453C14.6645 4.43486 14.625 4.53024 14.625 4.6297C14.625 5.32589 14.3484 5.99357 13.8561 6.48585C13.3639 6.97814 12.6962 7.2547 12 7.2547C11.3038 7.2547 10.6361 6.97814 10.1438 6.48585C9.65155 5.99357 9.37498 5.32589 9.37498 4.6297C9.37498 4.53024 9.33548 4.43486 9.26515 4.36453C9.19482 4.29421 9.09944 4.2547 8.99998 4.2547H5.99998C5.93764 4.25527 5.87641 4.27138 5.82186 4.30157L0.967485 6.94814C0.707979 7.08372 0.512873 7.31674 0.42499 7.59603C0.337107 7.87532 0.363629 8.17807 0.498735 8.43783L2.30623 11.8888C2.40551 12.0758 2.55411 12.2321 2.7359 12.3407C2.91769 12.4492 3.12574 12.506 3.33748 12.5047H5.62498V20.3797C5.62498 20.6781 5.74351 20.9642 5.95449 21.1752C6.16547 21.3862 6.45162 21.5047 6.74998 21.5047H17.25C17.5484 21.5047 17.8345 21.3862 18.0455 21.1752C18.2565 20.9642 18.375 20.6781 18.375 20.3797V12.5047H20.6559C20.8677 12.506 21.0757 12.4492 21.2575 12.3407C21.4393 12.2321 21.5879 12.0758 21.6872 11.8888L23.4947 8.43783C23.6303 8.17887 23.6578 7.87674 23.5712 7.59755C23.4845 7.31837 23.2908 7.08486 23.0325 6.94814ZM3.34405 11.7547C3.26801 11.7565 3.19291 11.7376 3.12683 11.7C3.06075 11.6623 3.0062 11.6073 2.96905 11.5409L1.16623 8.09001C1.14446 8.0479 1.13132 8.00186 1.12761 7.9546C1.1239 7.90734 1.12968 7.85981 1.14462 7.81482C1.15956 7.76982 1.18336 7.72827 1.2146 7.69262C1.24584 7.65696 1.28391 7.62792 1.32655 7.6072L5.62498 5.26157V11.7547H3.34405ZM17.625 20.3797C17.625 20.4792 17.5855 20.5745 17.5152 20.6449C17.4448 20.7152 17.3494 20.7547 17.25 20.7547H6.74998C6.65053 20.7547 6.55515 20.7152 6.48482 20.6449C6.41449 20.5745 6.37498 20.4792 6.37498 20.3797V5.0047H8.64561C8.7373 5.83022 9.13018 6.59295 9.74907 7.1469C10.368 7.70086 11.1694 8.00715 12 8.00715C12.8306 8.00715 13.632 7.70086 14.2509 7.1469C14.8698 6.59295 15.2627 5.83022 15.3544 5.0047H17.625V20.3797ZM22.8337 8.09001L21.0272 11.5409C20.99 11.6073 20.9355 11.6623 20.8694 11.7C20.8033 11.7376 20.7282 11.7565 20.6522 11.7547H18.375V5.26157L22.6734 7.60532C22.7163 7.62603 22.7546 7.65515 22.786 7.69095C22.8174 7.72675 22.8413 7.76849 22.8563 7.81371C22.8712 7.85892 22.8769 7.90668 22.8731 7.95415C22.8692 8.00161 22.8558 8.04782 22.8337 8.09001Z"
 fill="currentColor"/>
</svg>
