<svg width="24" height="25" viewBox="0 0 24 25" fill="none" xmlns="http://www.w3.org/2000/svg">
<path d="M3.35401 17.7737C3.24401 17.6637 3.19301 17.545 3.20101 17.4177C3.20901 17.2904 3.26001 17.1797 3.35401 17.0857L8.16701 12.2157C8.47368 11.897 8.85268 11.7377 9.30401 11.7377C9.75534 11.7377 10.1407 11.897 10.46 12.2157L12.88 14.6427C12.996 14.758 13.1373 14.8157 13.304 14.8157C13.4707 14.8157 13.618 14.758 13.746 14.6427L19.331 9.12769H16.5C16.358 9.12769 16.239 9.08002 16.143 8.98468C16.047 8.88935 15.9993 8.77035 16 8.62769C16.0007 8.48502 16.0483 8.36602 16.143 8.27069C16.2377 8.17535 16.3567 8.12769 16.5 8.12769H20.192C20.4247 8.12769 20.6173 8.20435 20.77 8.35769C20.9233 8.51102 21 8.70369 21 8.93569V12.6277C21 12.7704 20.9523 12.8894 20.857 12.9847C20.7617 13.08 20.6427 13.1277 20.5 13.1277C20.3573 13.1277 20.2383 13.0834 20.143 12.9947C20.0477 12.906 20 12.79 20 12.6467V9.83569L14.44 15.3957C14.1333 15.7017 13.7547 15.8547 13.304 15.8547C12.8527 15.8547 12.4737 15.7014 12.167 15.3947L9.74701 12.9747C9.63101 12.8587 9.48334 12.8007 9.30401 12.8007C9.12468 12.8007 8.97701 12.8584 8.86101 12.9737L4.06101 17.7737C3.95501 17.8804 3.83734 17.9337 3.70801 17.9337C3.57868 17.9337 3.46068 17.8804 3.35401 17.7737Z"
 fill="currentColor"/>
</svg>
